# xmcd
#
# Track frame offsets: 
#        182
#        11170
#        27090
#        42182
#        60447
#        75845
#        90380
#        105462
#        117035
#        131662
#        144720
#        158840
#
# Disc length: 2361 seconds
#
# Revision: 3
# Processed by: cddbd v1.4PL0 Copyright (c) Steve Scherf et al.
# Submitted via: ExactAudioCopy v0.90b3
#
DISCID=8709370c
DTITLE=Eddie Rabbitt - Greatest Country Hits
DYEAR=1900
DGENRE=Country
TTITLE0=Drinking My Baby (Off My Mind)
TTITLE1=We Can't Go On Living Like This
TTITLE2=You Don't Love Me Anymore
TTITLE3=I Just Want To Love You
TTITLE4=Repetitive Regret
TTITLE5=I Wanna Dance With You
TTITLE6=The Wanderer
TTITLE7=B-B-B-Burnin' Up With Love
TTITLE8=American Boy
TTITLE9=Warning Sign
TTITLE10=She's Comin' Back To Say Goodbye
TTITLE11=Runnin' With The Wind
EXTD=
EXTT0=
EXTT1=
EXTT2=
EXTT3=
EXTT4=
EXTT5=
EXTT6=
EXTT7=
EXTT8=
EXTT9=
EXTT10=
EXTT11=
PLAYORDER=
